<svg width="145" height="150" fill="none" xmlns="http://www.w3.org/2000/svg"><path d="M74.555 11.018c-8.83.444-15.8 8-15.345 16.87l2.34 45.608-15.227 6.453c-4.704-8.94-15.514-12.94-24.953-8.94-9.966 4.226-14.624 15.766-10.404 25.782 4.22 10.014 15.72 14.711 25.69 10.487 6.84-2.9 11.177-9.247 11.862-16.18l18.65-7.903 1.04 20.31a19.673 19.673 0 00-9.325 17.778c.558 10.858 9.772 19.215 20.58 18.672 10.81-.545 19.12-9.785 18.564-20.64-.527-10.281-8.82-18.316-18.875-18.679L78.3 84.051l41.871-17.747c8.145-3.45 11.877-13.046 8.429-21.228L77.415 66.772l-2.86-55.754zM37.683 94.556a10.128 10.128 0 01-14.002 3.213c-4.756-2.996-6.197-9.295-3.22-14.066a10.126 10.126 0 0114.002-3.213c4.756 2.996 6.198 9.293 3.22 14.066zm49.37 31.112a10.126 10.126 0 01-14.002 3.213c-4.755-2.996-6.197-9.294-3.22-14.066a10.127 10.127 0 0114.003-3.214c4.755 2.997 6.198 9.294 3.22 14.067z" fill="#99BAED"/></svg>