<?xml version="1.0" encoding="utf-8"?><svg viewBox="0 0 310 737" xmlns="http://www.w3.org/2000/svg" xmlns:xlink="http://www.w3.org/1999/xlink"><style>:root>svg{display:none}:root>svg:target{display:block}</style><svg fill="none" viewBox="0 0 66 66" id="cleanser" xmlns="http://www.w3.org/2000/svg"><g clip-path="url(#aa)" fill="#008FDD"><path d="M7.734 0v7.734H5.801v3.868H21.27V7.734h-1.934V3.867h8.867l3.301 3.3 2.734-2.733L29.805 0H7.735zm38.801 52.338a1.934 1.934 0 0 0 3.867-.002c-.017-.593-.821-2.277-1.933-4.15-1.114 1.876-1.919 3.56-1.934 4.152z"/><path d="M58.266 31.066V27.2H38.672v3.867h-3.129c-3.32 6.71-4.605 12.782-4.605 17.403 0 4.616 1.281 10.815 4.605 17.531h25.852C64.715 59.29 66 53.09 66 48.469c0-4.616-1.281-10.686-4.606-17.403h-3.128zm-9.797 27.07a5.807 5.807 0 0 1-5.801-5.8c0-2.472 2.944-7 4.209-8.833l1.592-2.304 1.592 2.304c1.265 1.833 4.209 6.361 4.209 8.833 0 3.199-2.603 5.8-5.801 5.8zm-9.797-46.534h19.594v11.73H38.672v-11.73zm-27.07 33.001a1.935 1.935 0 0 0 3.867-.001c-.017-.593-.822-2.278-1.934-4.15-1.114 1.876-1.918 3.56-1.933 4.151zM0 58.137h27.07V66H0v-7.863zm0-42.668h27.07v7.863H0v-7.863z"/><path d="M27.07 27.2H0v27.07h27.07V27.2zM13.535 50.401a5.807 5.807 0 0 1-5.8-5.8c0-2.472 2.943-7 4.208-8.834l1.592-2.303 1.592 2.303c1.265 1.834 4.209 6.362 4.209 8.834 0 3.198-2.602 5.8-5.8 5.8z"/></g><defs><clipPath id="aa"><path fill="#fff" d="M0 0h66v66H0z"/></clipPath></defs></svg><svg fill="none" viewBox="0 0 18 17" id="ellipse" xmlns="http://www.w3.org/2000/svg"><circle cx="8.569" cy="7.554" r="7.954" transform="rotate(-.887 8.569 7.554)" fill="#FF5050" stroke="#fff"/></svg><svg fill="none" viewBox="0 0 19 38" id="facebook" xmlns="http://www.w3.org/2000/svg"><path d="M15.531 6.31H19V.268C18.402.185 16.343 0 13.946 0c-5 0-8.427 3.146-8.427 8.928v5.322H0v6.755h5.52V38h6.766V21.006h5.295l.841-6.754h-6.138V9.598c.002-1.952.527-3.288 3.247-3.288z" fill="#fff"/></svg><svg fill="none" viewBox="0 0 28 30" id="google+" xmlns="http://www.w3.org/2000/svg"><path d="M24.316 12.28V8.596H21.86v3.684h-3.685v2.457h3.685v3.684h2.456v-3.684H28V12.28h-3.684zm-9.456 4.176-1.351-.983c-.492-.368-.983-.86-.983-1.719 0-.86.614-1.596 1.228-1.965 1.597-1.228 3.193-2.579 3.193-5.28 0-2.58-1.596-4.053-2.456-4.79h2.088L18.053 0h-7.614C5.035 0 2.333 3.439 2.333 7.123c0 2.824 2.21 5.894 6.14 5.894h.983c-.123.369-.491.983-.491 1.597 0 1.228.491 1.719 1.105 2.456-1.72.122-4.912.49-7.245 1.965C.614 20.385 0 22.227 0 23.578c0 2.825 2.579 5.527 8.105 5.527 6.632 0 9.825-3.685 9.825-7.246 0-2.579-1.351-3.93-3.07-5.403zM5.526 5.28c0-2.702 1.597-3.93 3.316-3.93 3.193 0 4.912 4.298 4.912 6.754 0 3.193-2.579 3.807-3.561 3.807-3.07 0-4.667-3.807-4.667-6.631zm4.421 22.104c-4.052 0-6.631-1.842-6.631-4.544 0-2.701 2.456-3.56 3.193-3.93 1.596-.49 3.684-.613 4.052-.613h.86c2.947 2.087 4.175 2.947 4.175 4.912 0 2.333-2.333 4.175-5.649 4.175z" fill="#fff"/></svg><svg fill="none" viewBox="0 0 102 102" id="logo" xmlns="http://www.w3.org/2000/svg"><g clip-path="url(#ha)"><path d="M50.58 7.776c-5.956.521-10.484 5.781-9.963 11.739l2.68 30.633-10.135 4.725c-3.394-5.897-10.795-8.318-17.077-5.388-6.634 3.094-9.503 10.978-6.41 17.612 3.093 6.633 10.977 9.504 17.612 6.41a13.249 13.249 0 0 0 7.627-11.185l12.413-5.789 1.193 13.642a13.253 13.253 0 0 0-5.874 12.199c.638 7.292 7.066 12.684 14.357 12.047 7.293-.638 12.686-7.066 12.048-14.357-.604-6.905-6.4-12.103-13.205-12.095l-.975-11.14 27.868-12.995c5.42-2.528 7.711-9.079 5.184-14.498L53.856 45.224 50.58 7.776zM27.676 64.92a6.87 6.87 0 1 1-11.9-6.871 6.87 6.87 0 0 1 11.9 6.87zm34.113 19.695a6.87 6.87 0 1 1-11.9-6.871 6.87 6.87 0 0 1 11.9 6.87z" fill="#99BAED"/></g><defs><clipPath id="ha"><path fill="#fff" transform="rotate(-60 55.668 32.14)" d="M0 0h74.224v74.224H0z"/></clipPath></defs></svg><svg fill="none" viewBox="0 0 145 150" id="logo-footer" xmlns="http://www.w3.org/2000/svg"><path d="M74.555 11.018c-8.83.444-15.8 8-15.345 16.87l2.34 45.608-15.227 6.453c-4.704-8.94-15.514-12.94-24.953-8.94-9.966 4.226-14.624 15.766-10.404 25.782 4.22 10.014 15.72 14.711 25.69 10.487 6.84-2.9 11.177-9.247 11.862-16.18l18.65-7.903 1.04 20.31a19.673 19.673 0 0 0-9.325 17.778c.558 10.858 9.772 19.215 20.58 18.672 10.81-.545 19.12-9.785 18.564-20.64-.527-10.281-8.82-18.316-18.875-18.679L78.3 84.051l41.871-17.747c8.145-3.45 11.877-13.046 8.429-21.228L77.415 66.772l-2.86-55.754zM37.683 94.556a10.128 10.128 0 0 1-14.002 3.213c-4.756-2.996-6.197-9.295-3.22-14.066a10.126 10.126 0 0 1 14.002-3.213c4.756 2.996 6.198 9.293 3.22 14.066zm49.37 31.112a10.126 10.126 0 0 1-14.002 3.213c-4.755-2.996-6.197-9.294-3.22-14.066a10.127 10.127 0 0 1 14.003-3.214c4.755 2.997 6.198 9.294 3.22 14.067z" fill="#99BAED"/></svg><svg fill="none" viewBox="0 0 89 30" id="logo-sub" xmlns="http://www.w3.org/2000/svg"><path d="M3.12 14.48c1.973-.88 3.84-1.32 5.6-1.32 2.293 0 3.467 1.347 3.52 4.04H8c-2.16 0-3.907.533-5.24 1.6C1.453 19.867.8 21.373.8 23.32c0 1.867.573 3.36 1.72 4.48 1.173 1.12 2.88 1.68 5.12 1.68.96 0 1.92-.227 2.88-.68a9.508 9.508 0 0 0 2.56-1.76l.68 1.96h3V16.04c0-1.307-.36-2.48-1.08-3.52-.72-1.067-1.707-1.907-2.96-2.52-1.227-.613-2.587-.92-4.08-.92-.907 0-2.093.173-3.56.52-1.44.347-2.507.747-3.2 1.2l1.24 3.68zm1.6 8.84c0-.88.28-1.613.84-2.2.587-.613 1.373-.92 2.36-.92h4.36v3.48a7.819 7.819 0 0 1-2.24 1.64c-.827.4-1.653.6-2.48.6-.88 0-1.573-.253-2.08-.76-.507-.533-.76-1.147-.76-1.84zm21.002-6.68a16.93 16.93 0 0 1 3.52-2.44c1.28-.667 2.4-1 3.36-1l-.92-3.6c-.933 0-2.027.333-3.28 1-1.227.667-2.32 1.4-3.28 2.2l-1.48-3.2h-2.4V29h4.48V16.64zm18.262-7.56c1.974 0 3.694.427 5.16 1.28 1.467.827 2.587 2.013 3.36 3.56.8 1.547 1.2 3.36 1.2 5.44 0 2-.4 3.773-1.2 5.32a8.673 8.673 0 0 1-3.44 3.56c-1.466.853-3.186 1.28-5.16 1.28-.72 0-1.533-.16-2.44-.48-.88-.32-1.706-.747-2.48-1.28l-.92 1.24h-2.36V1.2l4.48-.44v9.36c1.307-.693 2.574-1.04 3.8-1.04zm-.08 16.56c1.6 0 2.854-.587 3.76-1.76.934-1.173 1.4-2.68 1.4-4.52 0-1.92-.453-3.467-1.36-4.64-.906-1.2-2.173-1.8-3.8-1.8-.693 0-1.346.107-1.96.32a7.174 7.174 0 0 0-1.76.96v10.24c1.094.8 2.334 1.2 3.72 1.2zm30.157-6.48c0-2.933-.733-5.347-2.2-7.24-1.466-1.893-3.626-2.84-6.48-2.84-1.946 0-3.64.427-5.08 1.28-1.413.853-2.506 2.053-3.28 3.6-.746 1.52-1.12 3.293-1.12 5.32 0 3.147.92 5.64 2.76 7.48 1.867 1.813 4.56 2.72 8.08 2.72 2.614 0 5-.747 7.16-2.24l-1.36-3.28c-1.146.587-2.133 1.027-2.96 1.32-.8.267-1.72.4-2.76.4-3.733 0-5.8-1.733-6.2-5.2h13.44v-1.32zm-13.36-1.68c.187-1.44.667-2.56 1.44-3.36.8-.8 1.84-1.2 3.12-1.2 1.254 0 2.254.387 3 1.16.747.773 1.24 1.907 1.48 3.4h-9.04zm21.232-.84a16.933 16.933 0 0 1 3.52-2.44c1.28-.667 2.4-1 3.36-1l-.92-3.6c-.933 0-2.027.333-3.28 1-1.227.667-2.32 1.4-3.28 2.2l-1.48-3.2h-2.4V29h4.48V16.64z" fill="#99BAED"/></svg><svg fill="none" viewBox="0 0 133 44" id="logo-sub-footer" xmlns="http://www.w3.org/2000/svg"><path d="M4.18 21.22c2.96-1.32 5.76-1.98 8.4-1.98 3.44 0 5.2 2.02 5.28 6.06H11.5c-3.24 0-5.86.8-7.86 2.4C1.68 29.3.7 31.56.7 34.48c0 2.8.86 5.04 2.58 6.72 1.76 1.68 4.32 2.52 7.68 2.52 1.44 0 2.88-.34 4.32-1.02 1.44-.68 2.72-1.56 3.84-2.64L20.14 43h4.5V23.56c0-1.96-.54-3.72-1.62-5.28-1.08-1.6-2.56-2.86-4.44-3.78-1.84-.92-3.88-1.38-6.12-1.38-1.36 0-3.14.26-5.34.78-2.16.52-3.76 1.12-4.8 1.8l1.86 5.52zm2.4 13.26c0-1.32.42-2.42 1.26-3.3.88-.92 2.06-1.38 3.54-1.38h6.54v5.22c-1 1.04-2.12 1.86-3.36 2.46-1.24.6-2.48.9-3.72.9-1.32 0-2.36-.38-3.12-1.14-.76-.8-1.14-1.72-1.14-2.76zm31.503-10.02c1.6-1.44 3.36-2.66 5.28-3.66 1.92-1 3.6-1.5 5.04-1.5l-1.38-5.4c-1.4 0-3.04.5-4.92 1.5-1.84 1-3.48 2.1-4.92 3.3l-2.22-4.8h-3.6V43h6.72V24.46zm27.394-11.34c2.96 0 5.54.64 7.74 1.92 2.2 1.24 3.88 3.02 5.04 5.34 1.2 2.32 1.8 5.04 1.8 8.16 0 3-.6 5.66-1.8 7.98a13.01 13.01 0 0 1-5.16 5.34c-2.2 1.28-4.78 1.92-7.74 1.92-1.08 0-2.3-.24-3.66-.72-1.32-.48-2.56-1.12-3.72-1.92L56.597 43h-3.54V1.3l6.72-.66v14.04c1.96-1.04 3.86-1.56 5.7-1.56zm-.12 24.84c2.4 0 4.28-.88 5.64-2.64 1.4-1.76 2.1-4.02 2.1-6.78 0-2.88-.68-5.2-2.04-6.96-1.36-1.8-3.26-2.7-5.7-2.7-1.04 0-2.02.16-2.94.48-.88.32-1.76.8-2.64 1.44v15.36c1.64 1.2 3.5 1.8 5.58 1.8zm45.235-9.72c0-4.4-1.1-8.02-3.3-10.86-2.2-2.84-5.44-4.26-9.72-4.26-2.92 0-5.46.64-7.62 1.92-2.12 1.28-3.76 3.08-4.92 5.4-1.12 2.28-1.68 4.94-1.68 7.98 0 4.72 1.38 8.46 4.14 11.22 2.8 2.72 6.84 4.08 12.12 4.08 3.92 0 7.5-1.12 10.74-3.36l-2.04-4.92c-1.72.88-3.2 1.54-4.44 1.98-1.2.4-2.58.6-4.14.6-5.6 0-8.7-2.6-9.3-7.8h20.16v-1.98zm-20.04-2.52c.28-2.16 1-3.84 2.16-5.04 1.2-1.2 2.76-1.8 4.68-1.8 1.88 0 3.38.58 4.5 1.74 1.12 1.16 1.86 2.86 2.22 5.1h-13.56zm31.847-1.26c1.6-1.44 3.36-2.66 5.28-3.66 1.92-1 3.6-1.5 5.04-1.5l-1.38-5.4c-1.4 0-3.04.5-4.92 1.5-1.84 1-3.48 2.1-4.92 3.3l-2.22-4.8h-3.6V43h6.72V24.46z" fill="#99BAED"/></svg><svg fill="none" viewBox="0 0 42 42" id="notification" xmlns="http://www.w3.org/2000/svg"><path d="M34.597 20.38c-1.279-1.493-1.86-2.787-1.86-4.985v-.747c0-2.864-.659-4.71-2.092-6.555C28.436 5.227 24.718 3.5 21.077 3.5h-.154c-3.564 0-7.166 1.648-9.413 4.397-1.512 1.883-2.247 3.807-2.247 6.75v.748c0 2.198-.543 3.492-1.86 4.984-.968 1.1-1.278 2.514-1.278 4.043 0 1.532.503 2.983 1.511 4.162a7.931 7.931 0 0 0 5.076 2.473c2.75.313 5.499.431 8.289.431 2.788 0 5.538-.197 8.29-.431a7.93 7.93 0 0 0 5.073-2.473c1.007-1.18 1.511-2.63 1.511-4.162 0-1.53-.31-2.943-1.278-4.043z" fill="#99BAED"/><path opacity=".4" d="M24.515 33.65c-.875-.187-6.206-.187-7.08 0-.748.172-1.557.574-1.557 1.456.043.84.536 1.582 1.218 2.053l-.002.002a6.364 6.364 0 0 0 3 1.28c.578.08 1.165.077 1.764 0a6.364 6.364 0 0 0 2.998-1.28l-.002-.002c.682-.47 1.174-1.213 1.218-2.053 0-.882-.809-1.284-1.557-1.456z" fill="#AEAEAE"/></svg><svg fill="none" viewBox="0 0 97 97" id="razor" xmlns="http://www.w3.org/2000/svg"><g clip-path="url(#ja)" fill="#008FDD"><path d="M46.106 38.417v-4.58h4.581v4.58h-4.58zm.672 23.624a2.275 2.275 0 0 0-.671 1.62v8.59c0 .612.238 1.187.67 1.62.433.433 1.008.67 1.62.67.611 0 1.186-.238 1.62-.67.431-.433.67-1.008.67-1.62v-8.59c0-.612-.238-1.188-.67-1.62a2.275 2.275 0 0 0-1.62-.671c-.612 0-1.187.238-1.62.671z"/><path d="M54.698 40.421a2 2 0 0 1-.588 1.419 2 2 0 0 1-1.418.587h-8.59a2.005 2.005 0 0 1-2.006-2.005v-6.586H30.284v37.341c0 4.84 1.884 9.388 5.305 12.809a17.975 17.975 0 0 0 10.803 5.195v4.777a2.005 2.005 0 1 0 4.01 0v-4.777a17.977 17.977 0 0 0 10.803-5.195 17.997 17.997 0 0 0 5.305-12.809V33.836H54.698v6.585zm0 23.24v8.59a6.261 6.261 0 0 1-1.846 4.456 6.259 6.259 0 0 1-4.455 1.845 6.26 6.26 0 0 1-4.455-1.846 6.26 6.26 0 0 1-1.846-4.455v-8.59a6.26 6.26 0 0 1 1.846-4.456 6.26 6.26 0 0 1 4.455-1.846c1.683 0 3.266.656 4.456 1.846a6.263 6.263 0 0 1 1.845 4.455zm9.807-46.722a2.005 2.005 0 0 0-2.005 2.005v2.29h-2.433v-2.29a2.006 2.006 0 0 0-4.01 0v2.29h-2.433v-2.29a2.006 2.006 0 1 0-4.01 0v2.29H47.18v-2.29a2.005 2.005 0 0 0-4.01 0l-.001 2.29h-2.433v-2.29a2.004 2.004 0 1 0-4.01 0v2.29h-2.433v-2.29a2.004 2.004 0 1 0-4.01 0v10.883l36.226-.001V18.944a2.004 2.004 0 0 0-2.005-2.005z"/></g><defs><clipPath id="ja"><path fill="#fff" transform="rotate(-45 58.42 24.198)" d="M0 0h68.444v68.444H0z"/></clipPath></defs></svg><svg fill="none" viewBox="0 0 58 67" id="scissors" xmlns="http://www.w3.org/2000/svg"><path d="M10.04.995c-4.307 3.016-5.443 9.013-2.427 13.321l15.51 22.152-5.64 8.054c-5.178-2.999-11.879-1.588-15.375 3.406C-1.583 53.2-.302 60.466 4.97 64.159c5.273 3.691 12.54 2.411 16.232-2.862a11.651 11.651 0 0 0 .89-11.873L29 39.558l6.907 9.865a11.655 11.655 0 0 0 .89 11.873c3.693 5.273 10.96 6.553 16.232 2.862 5.273-3.693 6.554-10.959 2.862-16.231-3.496-4.993-10.196-6.404-15.374-3.405l-5.641-8.055 15.51-22.15c3.016-4.309 1.88-10.306-2.427-13.322L29 28.075 10.04.995zm7.683 53.592a6.042 6.042 0 1 1-12.084 0 6.042 6.042 0 0 1 12.084 0zm34.639 0a6.042 6.042 0 1 1-12.084 0 6.042 6.042 0 0 1 12.084 0z" fill="#008FDD"/></svg><svg fill="none" viewBox="0 0 32 26" id="twitter" xmlns="http://www.w3.org/2000/svg"><path d="M31.692 3.048c-1.178.517-2.434.86-3.743 1.026a6.46 6.46 0 0 0 2.858-3.59 12.985 12.985 0 0 1-4.12 1.572 6.495 6.495 0 0 0-11.239 4.443c0 .515.044 1.01.15 1.482-5.401-.264-10.18-2.853-13.391-6.796a6.541 6.541 0 0 0-.89 3.284 6.507 6.507 0 0 0 2.886 5.4 6.416 6.416 0 0 1-2.935-.801v.071c0 3.158 2.252 5.78 5.205 6.384a6.484 6.484 0 0 1-1.703.214c-.416 0-.836-.024-1.23-.11.841 2.572 3.23 4.464 6.07 4.525a13.054 13.054 0 0 1-8.055 2.771c-.533 0-1.044-.023-1.555-.089a18.291 18.291 0 0 0 9.967 2.916c11.956 0 18.493-9.904 18.493-18.489 0-.287-.01-.564-.024-.84a12.962 12.962 0 0 0 3.256-3.373z" fill="#fff"/></svg><svg fill="none" viewBox="0 0 42 42" id="user" xmlns="http://www.w3.org/2000/svg"><path d="M20.994 26.555C13.447 26.555 7 27.745 7 32.505c0 4.762 6.406 5.994 13.994 5.994 7.548 0 13.995-1.188 13.995-5.95 0-4.761-6.405-5.994-13.995-5.994z" fill="#99BAED"/><path opacity=".4" d="M20.994 22.021a9.228 9.228 0 0 0 9.261-9.26c0-5.14-4.12-9.261-9.26-9.261a9.23 9.23 0 0 0-9.262 9.26 9.229 9.229 0 0 0 9.261 9.261z" fill="#A4A4A4"/></svg><svg fill="none" viewBox="0 0 283 737" id="v-lb" xmlns="http://www.w3.org/2000/svg"><path d="M0 196C-46.4 58.8-119.333 8.5-150 .5V737h405.5c22.667-37.833 52.4-124.3-10-167.5C167.5 515.5 58 367.5 0 196z" fill="url(#na)"/><defs><linearGradient id="na" x1="-181.5" y1="112" x2="-40" y2="737" gradientUnits="userSpaceOnUse"><stop stop-color="#B6DBFC"/><stop offset="1" stop-color="#B1D4F2" stop-opacity="0"/></linearGradient></defs></svg><svg fill="none" viewBox="0 0 283 737" id="v-lt" xmlns="http://www.w3.org/2000/svg"><path d="M0 541c-46.4 137.2-119.333 187.5-150 195.5V0h405.5c22.667 37.833 52.4 124.3-10 167.5C167.5 221.5 58 369.5 0 541z" fill="url(#oa)"/><defs><linearGradient id="oa" x1="-181.5" y1="625" x2="-40" y2="0" gradientUnits="userSpaceOnUse"><stop stop-color="#B6DBFC"/><stop offset="1" stop-color="#B1D4F2" stop-opacity="0"/></linearGradient></defs></svg><svg fill="none" viewBox="0 0 310 737" id="v-rb" xmlns="http://www.w3.org/2000/svg"><path d="M283 196C329.4 58.8 402.333 8.5 433 .5V737H27.5c-22.667-37.833-52.4-124.3 10-167.5 78-54 187.5-202 245.5-373.5z" fill="url(#pa)"/><defs><linearGradient id="pa" x1="464.5" y1="112" x2="323" y2="737" gradientUnits="userSpaceOnUse"><stop stop-color="#B6DBFC"/><stop offset="1" stop-color="#B1D4F2" stop-opacity="0"/></linearGradient></defs></svg><svg fill="none" viewBox="0 0 310 737" id="v-rt" xmlns="http://www.w3.org/2000/svg"><path d="M283 541c46.4 137.2 119.333 187.5 150 195.5V0H27.5c-22.667 37.833-52.4 124.3 10 167.5 78 54 187.5 202 245.5 373.5z" fill="url(#qa)"/><defs><linearGradient id="qa" x1="464.5" y1="625" x2="323" y2="0" gradientUnits="userSpaceOnUse"><stop stop-color="#B6DBFC"/><stop offset="1" stop-color="#B1D4F2" stop-opacity="0"/></linearGradient></defs></svg></svg>